<svg id="Capa_1" enable-background="new 0 0 512 512" height="512" viewBox="0 0 512 512" width="512" xmlns="http://www.w3.org/2000/svg"><g><g><circle cx="235.185" cy="276.65" fill="#f07281" r="227.075"/><path d="m251.404 503.151c-5.363.379-10.77.573-16.22.573-125.409.001-227.074-101.664-227.074-227.074s101.665-227.075 227.075-227.075c5.45 0 10.856.195 16.22.573-117.842 8.315-210.856 106.541-210.856 226.502s93.014 218.186 210.855 226.501z" fill="#eb5569"/><circle cx="235.185" cy="276.65" fill="#f5f8f9" r="178.416"/><path d="m251.404 454.341c-5.342.476-10.748.724-16.22.724-98.377 0-178.416-80.039-178.416-178.416s80.039-178.415 178.417-178.415c5.471 0 10.878.249 16.22.724-90.808 8.229-162.196 84.785-162.196 177.692s71.387 169.462 162.195 177.691z" fill="#e8edf2"/><circle cx="235.185" cy="276.65" fill="#8ac9fe" r="135.164"/><path d="m251.404 410.84c-5.32.649-10.727.973-16.22.973-74.535 0-135.164-60.629-135.164-135.164s60.629-135.164 135.164-135.164c5.493 0 10.9.324 16.22.973-66.911 8.034-118.944 65.149-118.944 134.19s52.033 126.158 118.944 134.192z" fill="#60b7ff"/><circle cx="235.185" cy="276.65" fill="#f5f8f9" r="86.505"/><path d="m251.404 361.619c-5.255 1.016-10.673 1.535-16.22 1.535-47.697 0-86.505-38.808-86.505-86.505s38.808-86.505 86.505-86.505c5.547 0 10.964.519 16.22 1.535-39.965 7.602-70.285 42.809-70.285 84.969s30.32 77.369 70.285 84.971z" fill="#e8edf2"/><g><circle cx="235.185" cy="276.65" fill="#fee97d" r="43.252"/></g><path d="m251.404 316.745c-5.006 2.033-10.489 3.157-16.22 3.157-23.854 0-43.252-19.399-43.252-43.252s19.399-43.252 43.252-43.252c5.731 0 11.213 1.125 16.22 3.157-15.841 6.423-27.033 21.972-27.033 40.095s11.192 33.672 27.033 40.095z" fill="#fee45a"/><path d="m448.383 8.276-46.857 44.333v56.949h58.751l43.613-47.577-45.055-9.732z" fill="#918291"/><path d="m448.383 8.276-46.857 44.333v56.949l57.309-57.309z" fill="#7a6d79"/></g><path d="m466.309 114.268 43.72-47.694c1.816-1.98 2.434-4.781 1.618-7.342-.814-2.561-2.937-4.49-5.563-5.057l-31.098-6.717 28.314-28.315c2.929-2.929 2.929-7.678 0-10.606s-7.677-2.93-10.607 0l-29.023 29.022-7.517-31.625c-.62-2.608-2.585-4.687-5.153-5.453-2.568-.767-5.352-.103-7.298 1.739l-46.973 44.443c-1.497 1.417-2.346 3.387-2.346 5.448v51.596c-16.151-14.877-34.205-27.371-53.786-37.207-3.7-1.858-8.209-.366-10.068 3.336-1.859 3.701-.365 8.209 3.336 10.068 18.807 9.447 36.106 21.521 51.529 35.932l-23.964 23.964c-34.543-31.938-79.097-49.448-126.299-49.448-48.122 0-93.833 18.36-128.712 51.698-2.994 2.862-3.102 7.61-.24 10.604s7.61 3.101 10.604.24c32.075-30.658 74.105-47.542 118.348-47.542 43.196 0 83.984 15.951 115.686 45.062l-20.061 20.061c-25.352-22.843-58.889-36.769-95.621-36.769-78.849 0-142.997 64.148-142.997 142.997 0 78.848 64.148 142.996 142.997 142.996s142.995-64.148 142.995-142.996c0-36.732-13.926-70.269-36.769-95.621l20.061-20.061c29.115 31.708 45.068 72.494 45.068 115.682 0 88.225-68.796 163.217-156.629 170.728-10.292.894-21.076.835-31.322-.173-88.228-8.508-154.76-81.831-154.76-170.555 0-16.105 2.24-32.033 6.662-47.362 1.127-3.95 2.45-7.978 3.932-11.974 4.379-11.831 10.097-23.204 16.993-33.804 2.259-3.472 1.275-8.118-2.197-10.376-3.471-2.259-8.117-1.275-10.376 2.197-7.502 11.53-13.722 23.904-18.486 36.772-1.614 4.354-3.058 8.75-4.284 13.048-4.807 16.66-7.244 33.987-7.244 51.499 0 46.554 17.325 91.155 48.784 125.587 31.252 34.206 73.704 55.479 119.521 59.896 5.905.581 11.976.876 18.045.876 5.373 0 10.766-.231 16.019-.688 46.275-3.957 89.213-25.044 120.906-59.378 31.879-34.536 49.436-79.388 49.436-126.294 0-47.194-17.513-91.747-49.455-126.295l23.962-23.962c38.272 40.904 59.272 93.963 59.272 150.257 0 121.38-98.754 220.13-220.14 220.13-121.38 0-220.13-98.75-220.13-220.13 0-32.907 7.078-64.54 21.04-94.024 9.441-19.968 21.832-38.385 36.827-54.736 41.607-45.356 100.75-71.37 162.263-71.37 22.923 0 45.507 3.507 67.125 10.423 3.942 1.26 8.166-.912 9.429-4.858 1.262-3.945-.913-8.167-4.858-9.429-23.098-7.389-47.22-11.136-71.695-11.136-33.531 0-65.92 6.914-96.269 20.549-29.314 13.17-55.237 31.904-77.049 55.682-16.014 17.463-29.247 37.133-39.331 58.459-14.917 31.503-22.481 65.295-22.481 100.44 0 62.806 24.458 121.853 68.871 166.263 44.411 44.409 103.456 68.867 166.259 68.867 62.808 0 121.856-24.457 166.268-68.867 44.413-44.41 68.872-103.457 68.872-166.263 0-59.904-22.263-116.377-62.852-160.002h53.363c2.102 0 4.108-.882 5.528-2.432zm-21.743-92.216 6.647 27.964-41.83 41.83v-36.506zm-81.436 254.651c0 70.577-57.419 127.996-127.996 127.996-70.578 0-127.997-57.419-127.997-127.996 0-70.578 57.419-127.997 127.997-127.997 32.596 0 62.379 12.254 85.001 32.389l-23.92 23.92c-17.039-14.58-38.457-22.533-61.084-22.533-51.948 0-94.21 42.267-94.21 94.22 0 44.612 31.712 83.446 75.404 92.339 4.061.829 8.019-1.794 8.845-5.854.826-4.059-1.794-8.019-5.853-8.845-36.734-7.477-63.396-40.129-63.396-77.641 0-43.682 35.533-79.22 79.21-79.22 18.617 0 36.26 6.411 50.436 18.182l-20.183 20.183c-8.46-6.281-18.927-10.003-30.249-10.003-28.043 0-50.859 22.815-50.859 50.859s22.815 50.858 50.859 50.858c28.043 0 50.858-22.815 50.858-50.858 0-11.322-3.722-21.789-10.003-30.249l20.181-20.181c11.768 14.18 18.179 31.822 18.179 50.43 0 38.392-27.406 71.182-65.167 77.968-4.077.733-6.788 4.632-6.055 8.708.652 3.628 3.812 6.175 7.373 6.175.44 0 .887-.039 1.335-.12 44.915-8.072 77.513-47.071 77.513-92.732 0-22.618-7.952-44.035-22.53-61.079l23.922-23.922c20.135 22.624 32.389 52.407 32.389 85.003zm-92.138 0c0 19.772-16.086 35.858-35.858 35.858s-35.859-16.086-35.859-35.858 16.086-35.859 35.859-35.859c7.178 0 13.864 2.128 19.477 5.775l-24.78 24.781c-2.929 2.929-2.929 7.678 0 10.606 1.464 1.464 3.384 2.197 5.303 2.197s3.839-.732 5.303-2.197l24.781-24.781c3.646 5.614 5.774 12.3 5.774 19.478zm149.751-175.003 41.622-41.622 27.771 5.998-32.655 35.624z"/></g></svg>